<svg width="561" height="181" viewBox="0 0 561 181" fill="none" xmlns="http://www.w3.org/2000/svg">
<rect width="561" height="181" fill="white"/>
<path d="M0 119H561V181H0V119Z" fill="#F8F0F0"/>
<path d="M103.078 148.436V146.453H104.562V143.484H107.316V146.453H109.045V148.436H107.316V154.061C107.316 154.497 107.372 154.77 107.482 154.881C107.593 154.985 107.932 155.037 108.498 155.037C108.583 155.037 108.671 155.037 108.762 155.037C108.859 155.031 108.954 155.024 109.045 155.018V157.098L107.727 157.146C106.411 157.192 105.513 156.964 105.031 156.463C104.719 156.144 104.562 155.652 104.562 154.988V148.436H103.078ZM116.701 146.082C117.359 146.082 117.954 146.196 118.488 146.424C119.029 146.652 119.471 147 119.816 147.469C120.109 147.866 120.288 148.276 120.354 148.699C120.419 149.116 120.451 149.799 120.451 150.75V157H117.609V150.525C117.609 149.952 117.512 149.49 117.316 149.139C117.062 148.644 116.581 148.396 115.871 148.396C115.135 148.396 114.576 148.644 114.191 149.139C113.814 149.627 113.625 150.327 113.625 151.238V157H110.852V142.654H113.625V147.742C114.029 147.124 114.494 146.694 115.021 146.453C115.555 146.206 116.115 146.082 116.701 146.082ZM127.258 148.367C126.613 148.367 126.112 148.569 125.754 148.973C125.402 149.376 125.181 149.923 125.09 150.613H129.416C129.37 149.878 129.146 149.321 128.742 148.943C128.345 148.559 127.85 148.367 127.258 148.367ZM127.258 146.072C128.143 146.072 128.941 146.238 129.65 146.57C130.36 146.902 130.946 147.426 131.408 148.143C131.825 148.774 132.095 149.507 132.219 150.34C132.29 150.828 132.32 151.531 132.307 152.449H125.021C125.061 153.517 125.396 154.266 126.027 154.695C126.411 154.962 126.874 155.096 127.414 155.096C127.987 155.096 128.452 154.933 128.811 154.607C129.006 154.432 129.178 154.188 129.328 153.875H132.17C132.098 154.507 131.77 155.148 131.184 155.799C130.272 156.834 128.996 157.352 127.355 157.352C126.001 157.352 124.807 156.915 123.771 156.043C122.736 155.171 122.219 153.751 122.219 151.785C122.219 149.943 122.684 148.53 123.615 147.547C124.553 146.564 125.767 146.072 127.258 146.072ZM142.99 145.105V148.973H146.398C147.076 148.973 147.583 148.895 147.922 148.738C148.521 148.465 148.82 147.924 148.82 147.117C148.82 146.245 148.531 145.659 147.951 145.359C147.626 145.19 147.137 145.105 146.486 145.105H142.99ZM147.111 142.605C148.12 142.625 148.895 142.749 149.436 142.977C149.982 143.204 150.445 143.54 150.822 143.982C151.135 144.347 151.382 144.751 151.564 145.193C151.747 145.636 151.838 146.141 151.838 146.707C151.838 147.391 151.665 148.064 151.32 148.729C150.975 149.386 150.406 149.852 149.611 150.125C150.275 150.392 150.744 150.773 151.018 151.268C151.298 151.756 151.438 152.505 151.438 153.514V154.48C151.438 155.138 151.464 155.584 151.516 155.818C151.594 156.189 151.776 156.463 152.062 156.639V157H148.752C148.661 156.681 148.596 156.424 148.557 156.229C148.479 155.825 148.436 155.411 148.43 154.988L148.41 153.65C148.397 152.732 148.228 152.12 147.902 151.814C147.583 151.508 146.981 151.355 146.096 151.355H142.99V157H140.051V142.605H147.111ZM158.41 148.367C157.766 148.367 157.264 148.569 156.906 148.973C156.555 149.376 156.333 149.923 156.242 150.613H160.568C160.523 149.878 160.298 149.321 159.895 148.943C159.497 148.559 159.003 148.367 158.41 148.367ZM158.41 146.072C159.296 146.072 160.093 146.238 160.803 146.57C161.512 146.902 162.098 147.426 162.561 148.143C162.977 148.774 163.247 149.507 163.371 150.34C163.443 150.828 163.472 151.531 163.459 152.449H156.174C156.213 153.517 156.548 154.266 157.18 154.695C157.564 154.962 158.026 155.096 158.566 155.096C159.139 155.096 159.605 154.933 159.963 154.607C160.158 154.432 160.331 154.188 160.48 153.875H163.322C163.251 154.507 162.922 155.148 162.336 155.799C161.424 156.834 160.148 157.352 158.508 157.352C157.154 157.352 155.959 156.915 154.924 156.043C153.889 155.171 153.371 153.751 153.371 151.785C153.371 149.943 153.837 148.53 154.768 147.547C155.705 146.564 156.919 146.072 158.41 146.072ZM171.213 151.824C171.037 151.935 170.858 152.026 170.676 152.098C170.5 152.163 170.256 152.225 169.943 152.283L169.318 152.4C168.732 152.505 168.312 152.632 168.059 152.781C167.629 153.035 167.414 153.429 167.414 153.963C167.414 154.438 167.544 154.783 167.805 154.998C168.072 155.206 168.394 155.311 168.771 155.311C169.37 155.311 169.921 155.135 170.422 154.783C170.93 154.432 171.193 153.79 171.213 152.859V151.824ZM169.523 150.525C170.038 150.46 170.406 150.379 170.627 150.281C171.024 150.112 171.223 149.848 171.223 149.49C171.223 149.054 171.07 148.755 170.764 148.592C170.464 148.423 170.021 148.338 169.436 148.338C168.778 148.338 168.312 148.501 168.039 148.826C167.844 149.067 167.714 149.393 167.648 149.803H164.963C165.021 148.872 165.282 148.107 165.744 147.508C166.48 146.57 167.743 146.102 169.533 146.102C170.699 146.102 171.734 146.333 172.639 146.795C173.544 147.257 173.996 148.13 173.996 149.412V154.295C173.996 154.633 174.003 155.044 174.016 155.525C174.035 155.89 174.09 156.137 174.182 156.268C174.273 156.398 174.41 156.505 174.592 156.59V157H171.564C171.48 156.785 171.421 156.583 171.389 156.395C171.356 156.206 171.33 155.991 171.311 155.75C170.926 156.167 170.484 156.521 169.982 156.814C169.383 157.16 168.706 157.332 167.951 157.332C166.988 157.332 166.19 157.059 165.559 156.512C164.934 155.958 164.621 155.177 164.621 154.168C164.621 152.859 165.126 151.912 166.135 151.326C166.688 151.007 167.502 150.779 168.576 150.643L169.523 150.525ZM182.834 150.174C182.782 149.777 182.648 149.419 182.434 149.1C182.121 148.67 181.636 148.455 180.979 148.455C180.041 148.455 179.4 148.921 179.055 149.852C178.872 150.346 178.781 151.004 178.781 151.824C178.781 152.605 178.872 153.234 179.055 153.709C179.387 154.594 180.012 155.037 180.93 155.037C181.581 155.037 182.043 154.861 182.316 154.51C182.59 154.158 182.756 153.702 182.814 153.143H185.656C185.591 153.989 185.285 154.79 184.738 155.545C183.866 156.762 182.574 157.371 180.861 157.371C179.149 157.371 177.889 156.863 177.082 155.848C176.275 154.832 175.871 153.514 175.871 151.893C175.871 150.063 176.317 148.641 177.209 147.625C178.101 146.609 179.331 146.102 180.9 146.102C182.235 146.102 183.326 146.401 184.172 147C185.025 147.599 185.529 148.657 185.686 150.174H182.834ZM186.516 148.436V146.453H188V143.484H190.754V146.453H192.482V148.436H190.754V154.061C190.754 154.497 190.809 154.77 190.92 154.881C191.031 154.985 191.369 155.037 191.936 155.037C192.02 155.037 192.108 155.037 192.199 155.037C192.297 155.031 192.391 155.024 192.482 155.018V157.098L191.164 157.146C189.849 157.192 188.951 156.964 188.469 156.463C188.156 156.144 188 155.652 188 154.988V148.436H186.516ZM199.807 142.654H202.541V150.408L206.008 146.404H209.455L205.734 150.477L209.602 157H206.242L203.693 152.449L202.541 153.65V157H199.807V142.654ZM215.168 148.367C214.523 148.367 214.022 148.569 213.664 148.973C213.312 149.376 213.091 149.923 213 150.613H217.326C217.281 149.878 217.056 149.321 216.652 148.943C216.255 148.559 215.76 148.367 215.168 148.367ZM215.168 146.072C216.053 146.072 216.851 146.238 217.561 146.57C218.27 146.902 218.856 147.426 219.318 148.143C219.735 148.774 220.005 149.507 220.129 150.34C220.201 150.828 220.23 151.531 220.217 152.449H212.932C212.971 153.517 213.306 154.266 213.938 154.695C214.322 154.962 214.784 155.096 215.324 155.096C215.897 155.096 216.363 154.933 216.721 154.607C216.916 154.432 217.089 154.188 217.238 153.875H220.08C220.008 154.507 219.68 155.148 219.094 155.799C218.182 156.834 216.906 157.352 215.266 157.352C213.911 157.352 212.717 156.915 211.682 156.043C210.646 155.171 210.129 153.751 210.129 151.785C210.129 149.943 210.594 148.53 211.525 147.547C212.463 146.564 213.677 146.072 215.168 146.072ZM222.531 159.041L222.883 159.061C223.156 159.074 223.417 159.064 223.664 159.031C223.911 158.999 224.12 158.924 224.289 158.807C224.452 158.696 224.602 158.465 224.738 158.113C224.882 157.762 224.94 157.547 224.914 157.469L221.008 146.355H224.104L226.428 154.207L228.625 146.355H231.584L227.932 156.824C227.229 158.842 226.672 160.092 226.262 160.574C225.852 161.062 225.031 161.307 223.801 161.307C223.553 161.307 223.355 161.303 223.205 161.297C223.055 161.297 222.831 161.287 222.531 161.268V159.041ZM238.986 146.121C240.386 146.121 241.48 146.626 242.268 147.635C243.062 148.644 243.459 149.946 243.459 151.541C243.459 153.195 243.068 154.565 242.287 155.652C241.506 156.74 240.415 157.283 239.016 157.283C238.137 157.283 237.43 157.107 236.896 156.756C236.577 156.548 236.232 156.183 235.861 155.662V157H233.137V142.625H235.91V147.742C236.262 147.247 236.649 146.87 237.072 146.609C237.574 146.284 238.212 146.121 238.986 146.121ZM238.273 154.988C238.99 154.988 239.546 154.699 239.943 154.119C240.34 153.54 240.539 152.778 240.539 151.834C240.539 151.079 240.441 150.454 240.246 149.959C239.875 149.021 239.191 148.553 238.195 148.553C237.186 148.553 236.493 149.012 236.115 149.93C235.92 150.418 235.822 151.049 235.822 151.824C235.822 152.736 236.024 153.491 236.428 154.09C236.831 154.689 237.447 154.988 238.273 154.988ZM250.236 155.037C251.05 155.037 251.675 154.747 252.111 154.168C252.548 153.589 252.766 152.765 252.766 151.697C252.766 150.63 252.548 149.809 252.111 149.236C251.675 148.657 251.05 148.367 250.236 148.367C249.423 148.367 248.794 148.657 248.352 149.236C247.915 149.809 247.697 150.63 247.697 151.697C247.697 152.765 247.915 153.589 248.352 154.168C248.794 154.747 249.423 155.037 250.236 155.037ZM255.686 151.697C255.686 153.26 255.236 154.598 254.338 155.711C253.439 156.818 252.076 157.371 250.246 157.371C248.417 157.371 247.053 156.818 246.154 155.711C245.256 154.598 244.807 153.26 244.807 151.697C244.807 150.161 245.256 148.829 246.154 147.703C247.053 146.577 248.417 146.014 250.246 146.014C252.076 146.014 253.439 146.577 254.338 147.703C255.236 148.829 255.686 150.161 255.686 151.697ZM263.557 151.824C263.381 151.935 263.202 152.026 263.02 152.098C262.844 152.163 262.6 152.225 262.287 152.283L261.662 152.4C261.076 152.505 260.656 152.632 260.402 152.781C259.973 153.035 259.758 153.429 259.758 153.963C259.758 154.438 259.888 154.783 260.148 154.998C260.415 155.206 260.738 155.311 261.115 155.311C261.714 155.311 262.264 155.135 262.766 154.783C263.273 154.432 263.537 153.79 263.557 152.859V151.824ZM261.867 150.525C262.382 150.46 262.749 150.379 262.971 150.281C263.368 150.112 263.566 149.848 263.566 149.49C263.566 149.054 263.413 148.755 263.107 148.592C262.808 148.423 262.365 148.338 261.779 148.338C261.122 148.338 260.656 148.501 260.383 148.826C260.188 149.067 260.057 149.393 259.992 149.803H257.307C257.365 148.872 257.626 148.107 258.088 147.508C258.824 146.57 260.087 146.102 261.877 146.102C263.042 146.102 264.077 146.333 264.982 146.795C265.887 147.257 266.34 148.13 266.34 149.412V154.295C266.34 154.633 266.346 155.044 266.359 155.525C266.379 155.89 266.434 156.137 266.525 156.268C266.617 156.398 266.753 156.505 266.936 156.59V157H263.908C263.824 156.785 263.765 156.583 263.732 156.395C263.7 156.206 263.674 155.991 263.654 155.75C263.27 156.167 262.827 156.521 262.326 156.814C261.727 157.16 261.05 157.332 260.295 157.332C259.331 157.332 258.534 157.059 257.902 156.512C257.277 155.958 256.965 155.177 256.965 154.168C256.965 152.859 257.469 151.912 258.479 151.326C259.032 151.007 259.846 150.779 260.92 150.643L261.867 150.525ZM274.602 146.102C274.654 146.102 274.696 146.105 274.729 146.111C274.768 146.111 274.849 146.115 274.973 146.121V148.973C274.797 148.953 274.641 148.94 274.504 148.934C274.367 148.927 274.257 148.924 274.172 148.924C273.052 148.924 272.3 149.288 271.916 150.018C271.701 150.428 271.594 151.059 271.594 151.912V157H268.791V146.355H271.447V148.211C271.877 147.501 272.251 147.016 272.57 146.756C273.091 146.32 273.768 146.102 274.602 146.102ZM280.539 146.102C281.184 146.102 281.757 146.245 282.258 146.531C282.759 146.811 283.166 147.202 283.479 147.703V142.625H286.301V157H283.596V155.525C283.199 156.157 282.746 156.616 282.238 156.902C281.73 157.189 281.099 157.332 280.344 157.332C279.1 157.332 278.052 156.831 277.199 155.828C276.353 154.819 275.93 153.527 275.93 151.951C275.93 150.135 276.346 148.706 277.18 147.664C278.02 146.622 279.139 146.102 280.539 146.102ZM281.145 154.988C281.932 154.988 282.531 154.695 282.941 154.109C283.352 153.523 283.557 152.765 283.557 151.834C283.557 150.532 283.228 149.601 282.57 149.041C282.167 148.702 281.698 148.533 281.164 148.533C280.35 148.533 279.751 148.842 279.367 149.461C278.99 150.073 278.801 150.835 278.801 151.746C278.801 152.729 278.993 153.517 279.377 154.109C279.768 154.695 280.357 154.988 281.145 154.988ZM296.809 152.557C296.9 153.214 297.079 153.706 297.346 154.031C297.834 154.624 298.671 154.92 299.855 154.92C300.565 154.92 301.141 154.842 301.584 154.686C302.424 154.386 302.844 153.829 302.844 153.016C302.844 152.54 302.635 152.173 302.219 151.912C301.802 151.658 301.148 151.434 300.256 151.238L298.732 150.896C297.235 150.558 296.2 150.19 295.627 149.793C294.657 149.129 294.172 148.09 294.172 146.678C294.172 145.389 294.641 144.318 295.578 143.465C296.516 142.612 297.893 142.186 299.709 142.186C301.226 142.186 302.518 142.589 303.586 143.396C304.66 144.197 305.223 145.363 305.275 146.893H302.385C302.333 146.027 301.955 145.411 301.252 145.047C300.783 144.806 300.201 144.686 299.504 144.686C298.729 144.686 298.111 144.842 297.648 145.154C297.186 145.467 296.955 145.903 296.955 146.463C296.955 146.977 297.183 147.361 297.639 147.615C297.932 147.785 298.557 147.983 299.514 148.211L301.994 148.807C303.081 149.067 303.902 149.415 304.455 149.852C305.314 150.529 305.744 151.508 305.744 152.791C305.744 154.106 305.24 155.2 304.23 156.072C303.228 156.938 301.809 157.371 299.973 157.371C298.098 157.371 296.623 156.945 295.549 156.092C294.475 155.232 293.938 154.054 293.938 152.557H296.809ZM312.766 146.355H315.588L317.209 154.021L318.869 146.355H321.77L318.684 157H315.822L314.152 149.246L312.463 157H309.572L306.584 146.355H309.572L311.232 153.992L312.766 146.355ZM326.174 145.086H323.352V142.518H326.174V145.086ZM323.352 146.355H326.174V157H323.352V146.355ZM331.047 153.602C331.105 154.096 331.232 154.448 331.428 154.656C331.773 155.027 332.411 155.213 333.342 155.213C333.889 155.213 334.322 155.132 334.641 154.969C334.966 154.806 335.129 154.562 335.129 154.236C335.129 153.924 334.999 153.686 334.738 153.523C334.478 153.361 333.511 153.081 331.838 152.684C330.633 152.384 329.784 152.01 329.289 151.561C328.794 151.118 328.547 150.48 328.547 149.646C328.547 148.663 328.931 147.82 329.699 147.117C330.474 146.408 331.561 146.053 332.961 146.053C334.289 146.053 335.37 146.32 336.203 146.854C337.043 147.381 337.525 148.296 337.648 149.598H334.865C334.826 149.24 334.725 148.956 334.562 148.748C334.257 148.37 333.736 148.182 333 148.182C332.395 148.182 331.962 148.276 331.701 148.465C331.447 148.654 331.32 148.875 331.32 149.129C331.32 149.448 331.457 149.679 331.73 149.822C332.004 149.972 332.971 150.229 334.631 150.594C335.738 150.854 336.568 151.248 337.121 151.775C337.668 152.309 337.941 152.977 337.941 153.777C337.941 154.832 337.548 155.695 336.76 156.365C335.979 157.029 334.768 157.361 333.127 157.361C331.454 157.361 330.217 157.01 329.416 156.307C328.622 155.597 328.225 154.695 328.225 153.602H331.047ZM342.18 153.602C342.238 154.096 342.365 154.448 342.561 154.656C342.906 155.027 343.544 155.213 344.475 155.213C345.021 155.213 345.454 155.132 345.773 154.969C346.099 154.806 346.262 154.562 346.262 154.236C346.262 153.924 346.132 153.686 345.871 153.523C345.611 153.361 344.644 153.081 342.971 152.684C341.766 152.384 340.917 152.01 340.422 151.561C339.927 151.118 339.68 150.48 339.68 149.646C339.68 148.663 340.064 147.82 340.832 147.117C341.607 146.408 342.694 146.053 344.094 146.053C345.422 146.053 346.503 146.32 347.336 146.854C348.176 147.381 348.658 148.296 348.781 149.598H345.998C345.959 149.24 345.858 148.956 345.695 148.748C345.389 148.37 344.868 148.182 344.133 148.182C343.527 148.182 343.094 148.276 342.834 148.465C342.58 148.654 342.453 148.875 342.453 149.129C342.453 149.448 342.59 149.679 342.863 149.822C343.137 149.972 344.104 150.229 345.764 150.594C346.87 150.854 347.701 151.248 348.254 151.775C348.801 152.309 349.074 152.977 349.074 153.777C349.074 154.832 348.68 155.695 347.893 156.365C347.111 157.029 345.9 157.361 344.26 157.361C342.587 157.361 341.35 157.01 340.549 156.307C339.755 155.597 339.357 154.695 339.357 153.602H342.18ZM360.129 151.561H363.781L361.984 145.896L360.129 151.561ZM360.314 142.605H363.713L368.811 157H365.549L364.621 154.041H359.318L358.322 157H355.178L360.314 142.605ZM376.203 146.102C376.255 146.102 376.298 146.105 376.33 146.111C376.369 146.111 376.451 146.115 376.574 146.121V148.973C376.398 148.953 376.242 148.94 376.105 148.934C375.969 148.927 375.858 148.924 375.773 148.924C374.654 148.924 373.902 149.288 373.518 150.018C373.303 150.428 373.195 151.059 373.195 151.912V157H370.393V146.355H373.049V148.211C373.479 147.501 373.853 147.016 374.172 146.756C374.693 146.32 375.37 146.102 376.203 146.102ZM390.109 146.121C390.578 146.121 391.04 146.212 391.496 146.395C391.952 146.577 392.365 146.896 392.736 147.352C393.036 147.723 393.238 148.178 393.342 148.719C393.407 149.077 393.439 149.601 393.439 150.291L393.42 157H390.568V150.223C390.568 149.819 390.503 149.487 390.373 149.227C390.126 148.732 389.67 148.484 389.006 148.484C388.238 148.484 387.707 148.803 387.414 149.441C387.264 149.78 387.189 150.187 387.189 150.662V157H384.387V150.662C384.387 150.031 384.322 149.572 384.191 149.285C383.957 148.771 383.498 148.514 382.814 148.514C382.02 148.514 381.486 148.771 381.213 149.285C381.063 149.578 380.988 150.014 380.988 150.594V157H378.166V146.375H380.871V147.928C381.216 147.374 381.542 146.98 381.848 146.746C382.388 146.329 383.088 146.121 383.947 146.121C384.761 146.121 385.419 146.3 385.92 146.658C386.324 146.99 386.63 147.417 386.838 147.938C387.202 147.312 387.655 146.854 388.195 146.561C388.768 146.268 389.406 146.121 390.109 146.121ZM396.438 159.041L396.789 159.061C397.062 159.074 397.323 159.064 397.57 159.031C397.818 158.999 398.026 158.924 398.195 158.807C398.358 158.696 398.508 158.465 398.645 158.113C398.788 157.762 398.846 157.547 398.82 157.469L394.914 146.355H398.01L400.334 154.207L402.531 146.355H405.49L401.838 156.824C401.135 158.842 400.578 160.092 400.168 160.574C399.758 161.062 398.938 161.307 397.707 161.307C397.46 161.307 397.261 161.303 397.111 161.297C396.962 161.297 396.737 161.287 396.438 161.268V159.041ZM412.678 142.654H415.412V150.408L418.879 146.404H422.326L418.605 150.477L422.473 157H419.113L416.564 152.449L415.412 153.65V157H412.678V142.654ZM429.738 146.102C430.839 146.102 431.737 146.391 432.434 146.971C433.137 147.544 433.488 148.497 433.488 149.832V157H430.637V150.525C430.637 149.965 430.562 149.536 430.412 149.236C430.139 148.689 429.618 148.416 428.85 148.416C427.906 148.416 427.258 148.816 426.906 149.617C426.724 150.04 426.633 150.581 426.633 151.238V157H423.859V146.375H426.545V147.928C426.903 147.381 427.242 146.987 427.561 146.746C428.133 146.316 428.859 146.102 429.738 146.102ZM438.928 145.086H436.105V142.518H438.928V145.086ZM436.105 146.355H438.928V157H436.105V146.355ZM445.559 142.459C445.734 142.459 445.894 142.465 446.037 142.479C446.18 142.485 446.376 142.498 446.623 142.518V144.783C446.467 144.764 446.203 144.751 445.832 144.744C445.467 144.731 445.214 144.812 445.07 144.988C444.934 145.158 444.865 145.346 444.865 145.555C444.865 145.763 444.865 146.062 444.865 146.453H446.691V148.416H444.865V157H442.092V148.416H440.539V146.453H442.062V145.77C442.062 144.63 442.255 143.846 442.639 143.416C443.042 142.778 444.016 142.459 445.559 142.459ZM452.492 148.367C451.848 148.367 451.346 148.569 450.988 148.973C450.637 149.376 450.415 149.923 450.324 150.613H454.65C454.605 149.878 454.38 149.321 453.977 148.943C453.579 148.559 453.085 148.367 452.492 148.367ZM452.492 146.072C453.378 146.072 454.175 146.238 454.885 146.57C455.594 146.902 456.18 147.426 456.643 148.143C457.059 148.774 457.329 149.507 457.453 150.34C457.525 150.828 457.554 151.531 457.541 152.449H450.256C450.295 153.517 450.63 154.266 451.262 154.695C451.646 154.962 452.108 155.096 452.648 155.096C453.221 155.096 453.687 154.933 454.045 154.607C454.24 154.432 454.413 154.188 454.562 153.875H457.404C457.333 154.507 457.004 155.148 456.418 155.799C455.507 156.834 454.23 157.352 452.59 157.352C451.236 157.352 450.041 156.915 449.006 156.043C447.971 155.171 447.453 153.751 447.453 151.785C447.453 149.943 447.919 148.53 448.85 147.547C449.787 146.564 451.001 146.072 452.492 146.072Z" fill="#FF9A9A"/>
<mask id="mask0" mask-type="alpha" maskUnits="userSpaceOnUse" x="0" y="0" width="561" height="119">
<rect width="561" height="119" fill="#C4C4C4"/>
</mask>
<g mask="url(#mask0)">
<path d="M341 63.5L419 -121L733 -162L718.5 242.5L294 245.5L363 63.5H341Z" fill="#FF8888"/>
<path d="M71.024 70.712C69.968 67.352 67.856 64.184 64.784 61.4C63.248 59.96 61.136 57.944 59.408 56.216L47.504 44.792C44.528 41.912 44.432 39.704 44.816 38.36C45.392 36.344 47.504 34.712 50 34.232C52.016 33.848 55.76 33.848 59.408 38.264L68.144 31.256C65.36 27.896 62.096 25.496 58.448 24.056C54.992 22.808 51.344 22.52 47.888 23.288C44.72 23.864 41.744 25.304 39.344 27.32C36.752 29.528 34.928 32.216 34.064 35.288C33.2 38.168 33.296 41.336 34.256 44.312C35.216 47.384 37.04 50.264 39.728 52.856L48.464 61.112C48.848 61.496 54.032 66.584 57.2 69.56C59.216 71.48 61.424 74.36 60.464 77.624C59.6 80.504 56.624 82.904 52.976 83.576C50.864 84.056 48.56 83.864 46.448 83C43.856 82.04 41.456 80.12 39.44 77.432L30.608 84.344C33.968 88.664 37.904 91.64 42.416 93.464C45.104 94.52 47.984 95 50.864 95C52.304 95 53.744 94.904 55.184 94.616C62.96 93.08 69.2 87.608 71.216 80.696C72.176 77.432 72.08 73.976 71.024 70.712ZM133.489 23.768H122.353V54.2H93.9365V23.768H82.8005V95H93.9365V64.28H122.353V95H133.489V23.768ZM181.644 95C186.444 95 191.148 94.04 195.564 92.216C199.788 90.392 203.532 87.8 206.892 84.536C210.156 81.272 212.652 77.528 214.476 73.208C216.3 68.888 217.26 64.184 217.26 59.384C217.26 54.584 216.3 49.88 214.476 45.464C212.652 41.24 210.156 37.496 206.892 34.136C203.532 30.872 199.788 28.376 195.564 26.552C191.148 24.728 186.444 23.768 181.644 23.768C176.844 23.768 172.14 24.728 167.82 26.552C163.5 28.376 159.756 30.872 156.492 34.136C153.228 37.496 150.636 41.24 148.812 45.464C146.988 49.88 146.028 54.584 146.028 59.384C146.028 64.184 146.988 68.888 148.812 73.208C150.636 77.528 153.228 81.272 156.492 84.536C159.756 87.8 163.5 90.392 167.82 92.216C172.14 94.04 176.844 95 181.644 95ZM181.644 34.904C188.172 34.904 194.316 37.496 198.924 42.104C203.532 46.712 206.124 52.856 206.124 59.384C206.124 65.912 203.532 72.056 198.924 76.664C194.316 81.272 188.172 83.864 181.644 83.864C175.116 83.864 168.972 81.272 164.364 76.664C159.756 72.056 157.164 65.912 157.164 59.384C157.164 52.856 159.756 46.712 164.364 42.104C168.972 37.496 175.116 34.904 181.644 34.904ZM260.425 69.272C264.265 67.928 266.953 65.72 268.681 63.8C272.425 59.672 274.441 53.912 274.441 47.384C274.441 40.76 272.425 35 268.681 30.872C265.801 27.608 260.329 23.768 250.921 23.768H239.209H229.801V95H240.937V70.904H249.097L267.049 95H279.625L260.425 69.272ZM240.937 60.92V33.848H250.921C255.529 33.848 258.985 35.096 261.193 37.592C263.881 40.472 264.361 44.504 264.361 47.384C264.361 50.168 263.881 54.2 261.193 57.08C258.985 59.576 255.529 60.92 250.921 60.92H240.937ZM333.343 23.768H282.943V33.752H302.527V95H313.759V33.752H333.343V23.768Z" fill="#FF8888"/>
<path d="M438.768 95L407.376 58.04L433.488 23.768H419.472L396.624 53.144V23.768H385.488V95H396.624V62.744L424.848 95H438.768ZM459.343 95V23.768H448.207V95H459.343ZM519.874 23.768H469.474V33.752H489.058V95H500.29V33.752H519.874V23.768Z" fill="white"/>
</g>
</svg>
